<svg aria-hidden="true" style="width:0;height:0;position:absolute;overflow:hidden" xmlns="http://www.w3.org/2000/svg"><defs><symbol id="icon-top" viewBox="0 0 32 32"><path d="M17.333 28V7.219l7.057 7.057a1.332 1.332 0 1 0 1.885-1.886l-9.333-9.333a1.332 1.332 0 0 0-1.885 0L5.724 12.39a1.33 1.33 0 0 0 0 1.886 1.332 1.332 0 0 0 1.885 0l7.057-7.057V28a1.333 1.333 0 0 0 2.666 0z"/></symbol><symbol id="icon-arrow" viewBox="0 0 32 32"><path d="M30.926 7.931a1.715 1.715 0 0 1 0 2.424L17.212 24.069a1.715 1.715 0 0 1-2.424 0L1.074 10.355a1.715 1.715 0 0 1 2.424-2.424L16 20.433 28.502 7.931a1.715 1.715 0 0 1 2.424 0z"/></symbol><symbol id="icon-calendar" viewBox="0 0 32 32"><path d="M10 15v2a1 1 0 0 1-1 1H7a1 1 0 0 1-1-1v-2a1 1 0 0 1 1-1h2a1 1 0 0 1 1 1zm-1 7H7a1 1 0 0 0-1 1v2a1 1 0 0 0 1 1h2a1 1 0 0 0 1-1v-2a1 1 0 0 0-1-1zm8-8h-2a1 1 0 0 0-1 1v2a1 1 0 0 0 1 1h2a1 1 0 0 0 1-1v-2a1 1 0 0 0-1-1zm0 8h-2a1 1 0 0 0-1 1v2a1 1 0 0 0 1 1h2a1 1 0 0 0 1-1v-2a1 1 0 0 0-1-1zm8-8h-2a1 1 0 0 0-1 1v2a1 1 0 0 0 1 1h2a1 1 0 0 0 1-1v-2a1 1 0 0 0-1-1zm0 8h-2a1 1 0 0 0-1 1v2a1 1 0 0 0 1 1h2a1 1 0 0 0 1-1v-2a1 1 0 0 0-1-1zM7 6h2a1 1 0 0 0 1-1V1a1 1 0 0 0-1-1H7a1 1 0 0 0-1 1v4a1 1 0 0 0 1 1zm25 2v20a4 4 0 0 1-4 4H4a4 4 0 0 1-4-4V8a4 4 0 0 1 4-4h1v1c0 1.102.897 2 2 2h2c1.103 0 2-.898 2-2V4h10v1c0 1.102.898 2 2 2h2c1.102 0 2-.898 2-2V4h1a4 4 0 0 1 4 4zm-2 4c0-1.102-.896-2-2-2H4c-1.103 0-2 .898-2 2v16c0 1.104.897 2 2 2h24a2 2 0 0 0 2-2V12zm-7-6h2a1 1 0 0 0 1-1V1a1 1 0 0 0-1-1h-2a1 1 0 0 0-1 1v4a1 1 0 0 0 1 1z"/></symbol><symbol id="icon-cart" viewBox="0 0 32 32"><path d="M12.129 27.29a.323.323 0 1 0 0 .646.323.323 0 0 0 0-.646zm-2.258.323a2.258 2.258 0 1 1 4.516 0 2.258 2.258 0 0 1-4.516 0zM26.323 27.29a.323.323 0 1 0 0 .646.323.323 0 0 0 0-.646zm-2.258.323a2.258 2.258 0 1 1 4.516 0 2.258 2.258 0 0 1-4.516 0zM.839 1.806c0-.534.433-.968.968-.968h5.161c.461 0 .858.326.949.778L9.053 7.29h21.141a.97.97 0 0 1 .951 1.149l-2.066 10.833a3.55 3.55 0 0 1-3.538 2.857H13.016a3.547 3.547 0 0 1-3.538-2.856L7.321 8.494a.68.68 0 0 1-.018-.092L6.176 2.773H1.808a.968.968 0 0 1-.968-.968zm8.601 7.42 1.935 9.67a1.613 1.613 0 0 0 1.613 1.298h12.58a1.617 1.617 0 0 0 1.612-1.295l.001-.003 1.844-9.67H9.441z"/></symbol><symbol id="icon-facebook" viewBox="0 0 32 32"><path d="M19.269 31.781c-.156.006-.256.019-.356.019-2.137 0-4.269-.006-6.406.006-.3 0-.381-.081-.381-.381.006-4.975.006-9.956.006-14.931v-.431H8.688V10.75h.338c.938 0 1.875-.006 2.813.006.238 0 .3-.069.3-.3a243.606 243.606 0 0 1 0-4.188c.006-.975.162-1.925.613-2.806.644-1.244 1.662-2.05 2.95-2.55C16.752.5 17.858.349 18.971.331c1.813-.025 3.625-.013 5.438-.019.169 0 .306-.006.306.231-.006 1.719-.006 3.438-.006 5.156 0 .019-.006.037-.031.119h-.344c-1.125 0-2.25-.006-3.375 0-.65 0-1.175.263-1.506.831-.1.169-.163.388-.163.588-.019 1.063 0 2.125-.012 3.188 0 .25.075.319.319.319 1.563-.012 3.125-.006 4.688-.006h.456c-.219 1.787-.431 3.537-.65 5.306h-4.819v15.738z"/></symbol><symbol id="icon-instagram" viewBox="0 0 32 32"><path d="M31.563 16.063c0 2.175-.044 4.356.012 6.531.094 3.85-2.325 6.825-5.406 8.15a9.785 9.785 0 0 1-3.881.813c-4.206.006-8.419.063-12.625-.019-3.169-.063-5.775-1.387-7.644-4-.981-1.375-1.45-2.938-1.45-4.631V9.469c0-3.656 1.781-6.213 4.944-7.875C6.888.875 8.382.569 9.938.563c4.081 0 8.169-.025 12.25.012 3.169.025 5.813 1.238 7.762 3.787 1.087 1.425 1.613 3.063 1.613 4.862v6.838zm-28.688 0v6.875c0 1.025.237 1.988.769 2.856 1.394 2.281 3.5 3.394 6.112 3.438 4.194.063 8.394.025 12.594.012a6.826 6.826 0 0 0 2.962-.656c2.538-1.212 3.956-3.144 3.944-6.044-.025-4.438-.006-8.875-.006-13.313 0-1.256-.356-2.406-1.1-3.419-1.438-1.944-3.425-2.9-5.8-2.925-4.188-.05-8.375-.019-12.563-.013-.894 0-1.756.181-2.594.494-2.3.856-4.438 3.025-4.338 6.219.075 2.162.019 4.319.019 6.475z"/><path d="M16.1 22.688c-4.031 0-7.281-3.212-7.287-7.213-.006-3.938 3.269-7.162 7.275-7.162 4.019-.006 7.281 3.213 7.287 7.181 0 3.963-3.256 7.187-7.275 7.194zm0-2.313c2.744 0 4.969-2.194 4.962-4.894-.006-2.675-2.231-4.863-4.962-4.863-2.744 0-4.981 2.181-4.981 4.875.006 2.7 2.238 4.887 4.981 4.881zM24.219 6.125c.844 0 1.531.719 1.531 1.6-.006.881-.7 1.594-1.544 1.588-.831-.006-1.512-.719-1.512-1.581-.006-.881.681-1.606 1.525-1.606z"/></symbol><symbol id="icon-left-arrow" viewBox="0 0 32 32"><path fill="none" stroke="#1e2e36" style="stroke:var(--color1,#1e2e36)" d="M16 31c8.284 0 15-6.716 15-15S24.284 1 16 1C7.716 1 1 7.716 1 16s6.716 15 15 15z"/><path d="M12.181 15.87c0-.21.078-.421.235-.581l4.919-5.048c.313-.321.82-.321 1.133 0s.313.841 0 1.163l-4.353 4.466 4.353 4.466c.313.321.313.842 0 1.163s-.82.321-1.133 0l-4.919-5.047a.83.83 0 0 1-.234-.581z"/></symbol><symbol id="icon-map" viewBox="0 0 32 32"><path d="M16 29h-.006a.996.996 0 0 1-.704-.29l-7.07-7c-1.99-1.977-3.221-4.715-3.221-7.74s1.231-5.763 3.22-7.739l.001-.001c1.998-1.975 4.747-3.195 7.78-3.195s5.782 1.22 7.781 3.196l-.001-.001c1.99 1.977 3.221 4.715 3.221 7.74s-1.231 5.763-3.22 7.739l-.001.001-7.07 7a1 1 0 0 1-.704.29H16zm0-24h-.022A8.972 8.972 0 0 0 9.63 7.62c-1.624 1.614-2.629 3.85-2.629 6.32s1.005 4.706 2.629 6.32L16 26.59l6.37-6.33c1.624-1.614 2.629-3.85 2.629-6.32s-1.005-4.706-2.629-6.32A8.972 8.972 0 0 0 16.022 5h-.023H16zM8.93 6.91z"/><path d="M16 19a5 5 0 1 1 5-5 5 5 0 0 1-5 5zm0-8a3 3 0 1 0 3 3 3 3 0 0 0-3-3z"/></symbol><symbol id="icon-smartphone" viewBox="0 0 32 32"><path d="M9.984 4.8v22.4c0 .707.573 1.28 1.279 1.28h9.601a1.28 1.28 0 0 0 1.279-1.28V4.8a1.28 1.28 0 0 0-1.279-1.28h-9.601A1.28 1.28 0 0 0 9.984 4.8zm-1.92 0a3.2 3.2 0 0 1 3.199-3.2h9.601a3.2 3.2 0 0 1 3.199 3.2v22.4a3.2 3.2 0 0 1-3.199 3.2h-9.601a3.2 3.2 0 0 1-3.199-3.2V4.8zm8 22.08a1.28 1.28 0 1 0 0-2.56 1.28 1.28 0 0 0 0 2.56z"/></symbol><symbol id="icon-telegram" viewBox="0 0 32 32"><path d="M29.402 2.839 1.051 13.828c-1.141.512-1.527 1.537-.276 2.093l7.273 2.323L25.633 7.32c.96-.686 1.943-.503 1.097.251L11.626 21.317l-.474 5.817c.439.898 1.244.902 1.757.456l4.179-3.974 7.157 5.387c1.662.989 2.567.351 2.924-1.462l4.694-22.342c.487-2.232-.344-3.215-2.462-2.36z"/></symbol></defs></svg>