<svg aria-hidden="true" style="width:0;height:0;position:absolute;overflow:hidden" xmlns="http://www.w3.org/2000/svg"><defs><symbol id="icon-burger" viewBox="0 0 32 32"><path d="M28 10H4a1 1 0 0 1 0-2h24a1 1 0 0 1 0 2zM28 17H4a1 1 0 0 1 0-2h24a1 1 0 0 1 0 2zM28 24H4a1 1 0 0 1 0-2h24a1 1 0 0 1 0 2z"/></symbol><symbol id="icon-cancel" viewBox="0 0 32 32"><path d="M4 29h-.006a.996.996 0 0 1-.704-.29c-.183-.181-.296-.432-.296-.71s.113-.529.296-.71l24-24a1.004 1.004 0 1 1 1.42 1.42l-24 24a.997.997 0 0 1-.704.29H4z"/><path d="M28 29h-.006a.996.996 0 0 1-.704-.29l-24-24a1.004 1.004 0 1 1 1.42-1.42l24 24c.183.181.296.432.296.71s-.113.529-.296.71a1 1 0 0 1-.704.29H28z"/></symbol></defs></svg>