<svg aria-hidden="true" style="position: absolute; width: 0; height: 0; overflow: hidden;" version="1.1" xmlns="http://www.w3.org/2000/svg" xmlns:xlink="http://www.w3.org/1999/xlink">
<defs>
<symbol id="icon-arrow" viewBox="0 0 32 32">
<path d="M30.926 7.931c0.669 0.669 0.669 1.755 0 2.424l-13.714 13.714c-0.669 0.669-1.755 0.669-2.424 0l-13.714-13.714c-0.669-0.669-0.669-1.755 0-2.424s1.755-0.669 2.424 0l12.502 12.502 12.502-12.502c0.669-0.669 1.755-0.669 2.424 0z"></path>
</symbol>
<symbol id="icon-calendar" viewBox="0 0 32 32">
<path d="M10 15v2c0 0.553-0.447 1-1 1h-2c-0.553 0-1-0.447-1-1v-2c0-0.553 0.447-1 1-1h2c0.553 0 1 0.447 1 1zM9 22h-2c-0.553 0-1 0.447-1 1v2c0 0.553 0.447 1 1 1h2c0.553 0 1-0.447 1-1v-2c0-0.553-0.447-1-1-1zM17 14h-2c-0.553 0-1 0.447-1 1v2c0 0.553 0.447 1 1 1h2c0.553 0 1-0.447 1-1v-2c0-0.553-0.447-1-1-1zM17 22h-2c-0.553 0-1 0.447-1 1v2c0 0.553 0.447 1 1 1h2c0.553 0 1-0.447 1-1v-2c0-0.553-0.447-1-1-1zM25 14h-2c-0.553 0-1 0.447-1 1v2c0 0.553 0.447 1 1 1h2c0.553 0 1-0.447 1-1v-2c0-0.553-0.447-1-1-1zM25 22h-2c-0.553 0-1 0.447-1 1v2c0 0.553 0.447 1 1 1h2c0.553 0 1-0.447 1-1v-2c0-0.553-0.447-1-1-1zM7 6h2c0.553 0 1-0.447 1-1v-4c0-0.553-0.447-1-1-1h-2c-0.553 0-1 0.447-1 1v4c0 0.553 0.447 1 1 1zM32 8v20c0 2.209-1.791 4-4 4h-24c-2.209 0-4-1.791-4-4v-20c0-2.209 1.791-4 4-4h1v1c0 1.102 0.897 2 2 2h2c1.103 0 2-0.898 2-2v-1h10v1c0 1.102 0.898 2 2 2h2c1.102 0 2-0.898 2-2v-1h1c2.209 0 4 1.791 4 4zM30 12c0-1.102-0.896-2-2-2h-24c-1.103 0-2 0.898-2 2v16c0 1.104 0.897 2 2 2h24c1.104 0 2-0.896 2-2v-16zM23 6h2c0.553 0 1-0.447 1-1v-4c0-0.553-0.447-1-1-1h-2c-0.553 0-1 0.447-1 1v4c0 0.553 0.447 1 1 1z"></path>
</symbol>
<symbol id="icon-cart" viewBox="0 0 32 32">
<path d="M12.129 27.29c-0.178 0-0.323 0.144-0.323 0.323s0.144 0.323 0.323 0.323c0.178 0 0.323-0.144 0.323-0.323s-0.144-0.323-0.323-0.323zM9.871 27.613c0-1.247 1.011-2.258 2.258-2.258s2.258 1.011 2.258 2.258c0 1.247-1.011 2.258-2.258 2.258s-2.258-1.011-2.258-2.258z"></path>
<path d="M26.323 27.29c-0.178 0-0.323 0.144-0.323 0.323s0.144 0.323 0.323 0.323c0.178 0 0.323-0.144 0.323-0.323s-0.144-0.323-0.323-0.323zM24.065 27.613c0-1.247 1.011-2.258 2.258-2.258s2.258 1.011 2.258 2.258c0 1.247-1.011 2.258-2.258 2.258s-2.258-1.011-2.258-2.258z"></path>
<path d="M0.839 1.806c0-0.534 0.433-0.968 0.968-0.968h5.161c0.461 0 0.858 0.326 0.949 0.778l1.136 5.674h21.141c0.288 0 0.562 0.129 0.746 0.351s0.259 0.515 0.205 0.798l-2.066 10.833c-0.162 0.817-0.607 1.551-1.255 2.073-0.646 0.52-1.454 0.797-2.283 0.784h-12.525c-0.829 0.014-1.637-0.264-2.283-0.784-0.648-0.522-1.093-1.255-1.255-2.072l-2.157-10.779c-0.008-0.030-0.014-0.060-0.018-0.092l-1.127-5.629h-4.368c-0.534 0-0.968-0.433-0.968-0.968zM9.44 9.226l1.935 9.67c0.074 0.371 0.276 0.705 0.571 0.942s0.664 0.364 1.042 0.356l0.019-0 12.561 0c0.378 0.007 0.747-0.119 1.042-0.356 0.294-0.237 0.496-0.569 0.57-0.939l0.001-0.003 1.844-9.67h-19.584z"></path>
</symbol>
<symbol id="icon-facebook" viewBox="0 0 32 32">
<path d="M19.269 31.781c-0.156 0.006-0.256 0.019-0.356 0.019-2.137 0-4.269-0.006-6.406 0.006-0.3 0-0.381-0.081-0.381-0.381 0.006-4.975 0.006-9.956 0.006-14.931 0-0.131 0-0.262 0-0.431-1.162 0-2.294 0-3.444 0 0-1.775 0-3.519 0-5.313 0.119 0 0.231 0 0.338 0 0.938 0 1.875-0.006 2.813 0.006 0.238 0 0.3-0.069 0.3-0.3-0.012-1.394-0.012-2.794 0-4.188 0.006-0.975 0.162-1.925 0.613-2.806 0.644-1.244 1.662-2.050 2.95-2.55 1.050-0.412 2.156-0.563 3.269-0.581 1.813-0.025 3.625-0.013 5.438-0.019 0.169 0 0.306-0.006 0.306 0.231-0.006 1.719-0.006 3.438-0.006 5.156 0 0.019-0.006 0.037-0.031 0.119-0.106 0-0.225 0-0.344 0-1.125 0-2.25-0.006-3.375 0-0.65 0-1.175 0.263-1.506 0.831-0.1 0.169-0.163 0.388-0.163 0.588-0.019 1.063 0 2.125-0.012 3.188 0 0.25 0.075 0.319 0.319 0.319 1.563-0.012 3.125-0.006 4.688-0.006 0.125 0 0.244 0 0.456 0-0.219 1.787-0.431 3.537-0.65 5.306-1.625 0-3.206 0-4.819 0 0 5.256 0 10.481 0 15.738z"></path>
</symbol>
<symbol id="icon-instagram" viewBox="0 0 32 32">
<path d="M31.563 16.063c0 2.175-0.044 4.356 0.012 6.531 0.094 3.85-2.325 6.825-5.406 8.15-1.238 0.531-2.538 0.813-3.881 0.813-4.206 0.006-8.419 0.063-12.625-0.019-3.169-0.063-5.775-1.387-7.644-4-0.981-1.375-1.45-2.938-1.45-4.631 0-4.481 0-8.956 0-13.438 0-3.656 1.781-6.213 4.944-7.875 1.375-0.719 2.869-1.025 4.425-1.031 4.081 0 8.169-0.025 12.25 0.012 3.169 0.025 5.813 1.238 7.762 3.787 1.087 1.425 1.613 3.063 1.613 4.862 0 2.275 0 4.556 0 6.838zM2.875 16.063c0 2.294 0 4.581 0 6.875 0 1.025 0.237 1.988 0.769 2.856 1.394 2.281 3.5 3.394 6.112 3.438 4.194 0.063 8.394 0.025 12.594 0.012 1.031 0 2.031-0.212 2.962-0.656 2.538-1.212 3.956-3.144 3.944-6.044-0.025-4.438-0.006-8.875-0.006-13.313 0-1.256-0.356-2.406-1.1-3.419-1.438-1.944-3.425-2.9-5.8-2.925-4.188-0.050-8.375-0.019-12.563-0.013-0.894 0-1.756 0.181-2.594 0.494-2.3 0.856-4.438 3.025-4.338 6.219 0.075 2.162 0.019 4.319 0.019 6.475z"></path>
<path d="M16.1 22.688c-4.031 0-7.281-3.212-7.287-7.213-0.006-3.938 3.269-7.162 7.275-7.162 4.019-0.006 7.281 3.213 7.287 7.181 0 3.963-3.256 7.187-7.275 7.194zM16.1 20.375c2.744 0 4.969-2.194 4.962-4.894-0.006-2.675-2.231-4.863-4.962-4.863-2.744 0-4.981 2.181-4.981 4.875 0.006 2.7 2.238 4.887 4.981 4.881z"></path>
<path d="M24.219 6.125c0.844 0 1.531 0.719 1.531 1.6-0.006 0.881-0.7 1.594-1.544 1.588-0.831-0.006-1.512-0.719-1.512-1.581-0.006-0.881 0.681-1.606 1.525-1.606z"></path>
</symbol>
<symbol id="icon-left-arrow" viewBox="0 0 32 32">
<path fill="none" stroke="#1e2e36" style="stroke: var(--color1, #1e2e36)" stroke-linejoin="miter" stroke-linecap="butt" stroke-miterlimit="4" stroke-width="1" d="M16 31c8.284 0 15-6.716 15-15s-6.716-15-15-15c-8.284 0-15 6.716-15 15s6.716 15 15 15z"></path>
<path d="M12.181 15.87c0-0.21 0.078-0.421 0.235-0.581l4.919-5.048c0.313-0.321 0.82-0.321 1.133 0s0.313 0.841 0 1.163l-4.353 4.466 4.353 4.466c0.313 0.321 0.313 0.842 0 1.163s-0.82 0.321-1.133 0l-4.919-5.047c-0.156-0.16-0.234-0.371-0.234-0.581z"></path>
</symbol>
<symbol id="icon-map" viewBox="0 0 32 32">
<path d="M16 29c-0.002 0-0.004 0-0.006 0-0.275 0-0.524-0.111-0.704-0.29l-7.070-7c-1.99-1.977-3.221-4.715-3.221-7.74s1.231-5.763 3.22-7.739l0.001-0.001c1.998-1.975 4.747-3.195 7.78-3.195s5.782 1.22 7.781 3.196l-0.001-0.001c1.99 1.977 3.221 4.715 3.221 7.74s-1.231 5.763-3.22 7.739l-0.001 0.001-7.070 7c-0.181 0.179-0.43 0.29-0.704 0.29-0.002 0-0.004 0-0.006-0h0zM16 5c-0.007-0-0.014-0-0.022-0-2.477 0-4.721 1.001-6.348 2.62l0-0c-1.624 1.614-2.629 3.85-2.629 6.32s1.005 4.706 2.629 6.32l6.37 6.33 6.37-6.33c1.624-1.614 2.629-3.85 2.629-6.32s-1.005-4.706-2.629-6.32l-0-0c-1.627-1.619-3.871-2.62-6.348-2.62-0.008 0-0.016 0-0.023 0h0.001zM8.93 6.91v0z"></path>
<path d="M16 19c-2.761 0-5-2.239-5-5s2.239-5 5-5c2.761 0 5 2.239 5 5v0c0 2.761-2.239 5-5 5v0zM16 11c-1.657 0-3 1.343-3 3s1.343 3 3 3c1.657 0 3-1.343 3-3v0c0-1.657-1.343-3-3-3v0z"></path>
</symbol>
<symbol id="icon-smartphone" viewBox="0 0 32 32">
<path d="M9.984 4.8v22.4c0 0.707 0.573 1.28 1.279 1.28h9.601c0.707 0 1.279-0.573 1.279-1.28v-22.4c0-0.707-0.573-1.28-1.279-1.28h-9.601c-0.707 0-1.279 0.573-1.279 1.28zM8.064 4.8c0-1.767 1.432-3.2 3.199-3.2h9.601c1.767 0 3.199 1.433 3.199 3.2v22.4c0 1.767-1.432 3.2-3.199 3.2h-9.601c-1.767 0-3.199-1.433-3.199-3.2v-22.4zM16.064 26.88c0.707 0 1.28-0.573 1.28-1.28s-0.573-1.28-1.28-1.28c-0.707 0-1.28 0.573-1.28 1.28s0.573 1.28 1.28 1.28z"></path>
</symbol>
<symbol id="icon-telegram" viewBox="0 0 32 32">
<path d="M29.402 2.839l-28.351 10.989c-1.141 0.512-1.527 1.537-0.276 2.093l7.273 2.323 17.585-10.924c0.96-0.686 1.943-0.503 1.097 0.251l-15.104 13.746-0.474 5.817c0.439 0.898 1.244 0.902 1.757 0.456l4.179-3.974 7.157 5.387c1.662 0.989 2.567 0.351 2.924-1.462l4.694-22.342c0.487-2.232-0.344-3.215-2.462-2.36z"></path>
</symbol>
</defs>
</svg>
