<svg aria-hidden="true" style="position: absolute; width: 0; height: 0; overflow: hidden;" version="1.1" xmlns="http://www.w3.org/2000/svg" xmlns:xlink="http://www.w3.org/1999/xlink">
<defs>
<symbol id="icon-burger" viewBox="0 0 32 32">
<path d="M28 10h-24c-0.552 0-1-0.448-1-1s0.448-1 1-1v0h24c0.552 0 1 0.448 1 1s-0.448 1-1 1v0z"></path>
<path d="M28 17h-24c-0.552 0-1-0.448-1-1s0.448-1 1-1v0h24c0.552 0 1 0.448 1 1s-0.448 1-1 1v0z"></path>
<path d="M28 24h-24c-0.552 0-1-0.448-1-1s0.448-1 1-1v0h24c0.552 0 1 0.448 1 1s-0.448 1-1 1v0z"></path>
</symbol>
<symbol id="icon-cancel" viewBox="0 0 32 32">
<path d="M4 29c-0.002 0-0.004 0-0.006 0-0.275 0-0.524-0.111-0.704-0.29l0 0c-0.183-0.181-0.296-0.432-0.296-0.71s0.113-0.529 0.296-0.71l24-24c0.182-0.182 0.433-0.294 0.71-0.294 0.555 0 1.004 0.45 1.004 1.004 0 0.277-0.112 0.528-0.294 0.71l-24 24c-0.181 0.179-0.429 0.29-0.704 0.29-0.002 0-0.004 0-0.006-0h0z"></path>
<path d="M28 29c-0.002 0-0.004 0-0.006 0-0.275 0-0.524-0.111-0.704-0.29l-24-24c-0.182-0.182-0.294-0.433-0.294-0.71 0-0.555 0.45-1.004 1.004-1.004 0.277 0 0.528 0.112 0.71 0.294v0l24 24c0.183 0.181 0.296 0.432 0.296 0.71s-0.113 0.529-0.296 0.71l-0 0c-0.181 0.179-0.43 0.29-0.704 0.29-0.002 0-0.004 0-0.006-0h0z"></path>
</symbol>
</defs>
</svg>
